<svg id="Capa_1" enable-background="new 0 0 512 512" height="512" viewBox="0 0 512 512" width="512" xmlns="http://www.w3.org/2000/svg"><g><path d="m509.815 109.546c-2.913-2.914-7.636-2.913-10.549 0l-46.28 46.28c-7.629 7.629-17.772 11.83-28.56 11.83-10.432 0-20.254-3.939-27.79-11.097.791-.735 1.529-1.442 2.198-2.111 12.989-12.989 20.235-30.176 20.403-48.396.168-18.271-6.796-35.391-19.61-48.205-26.412-26.414-69.748-26.058-96.6.793-2.349 2.349-5.131 5.482-8.215 9.247-13.455-5.751-28.061-8.777-43.134-8.777h-.683c-60.51 0-109.738 49.228-109.738 109.738 0 29.312 11.415 56.87 32.142 77.596 8.165 8.165 19.362 19.358 31.618 31.609l-177.783 152.188 136.082-158.968c2.679-3.13 2.314-7.839-.816-10.518-3.13-2.678-7.839-2.313-10.518.816l-148.663 173.665c-4.679 5.466-4.382 13.126.706 18.214 5.102 5.102 12.765 5.371 18.214.706l193.36-165.523c27.811 27.797 58.043 58.01 70.057 70.015-12.483 12.485-40.152 42.604-40.152 64.298 0 28.003 22.782 50.786 50.786 50.786 28.003 0 50.786-22.783 50.786-50.786 0-21.696-27.671-51.817-40.154-64.3l8.159-8.16c10.003-10.003 15.513-23.303 15.513-37.45s-5.509-27.447-15.513-37.45l-9.462-9.462c-2.913-2.913-7.636-2.913-10.549 0s-2.913 7.636 0 10.549l9.462 9.462c7.186 7.186 11.143 16.74 11.143 26.901s-3.957 19.716-11.143 26.901l-8.244 8.245c-17.855-17.843-76.681-76.63-107.141-107.085l36.461-42.593c14.8-17.288 27.971-36.634 39.147-57.501 10.841-20.24 23.667-39.994 34.316-54.319 7.095 4.108 13.701 9.165 19.653 15.117l24.833 24.832-6.674 6.674c-3.504 3.505-9.208 3.506-12.713.003-.254-.254-.493-.523-.71-.798-2.556-3.232-7.248-3.778-10.478-1.224-4.292 3.324-3.282 9.384.637 12.568 4.661 4.661 10.784 6.992 16.907 6.992s12.246-2.331 16.907-6.992l23.389-23.389c9.323-9.322 9.323-24.491 0-33.813-9.322-9.322-24.491-9.322-33.813 0l-6.166 6.166-1.568-1.568c-6.361-6.361-13.368-11.841-20.87-16.387 1.896-2.225 3.638-4.141 5.172-5.675 21.036-21.035 54.905-21.391 75.502-.793 9.96 9.959 15.372 23.284 15.241 37.518-.132 14.287-5.826 27.777-16.034 37.985-10.964 10.963-40.823 32.222-71.814 48.82-20.867 11.176-40.213 24.347-57.501 39.146l-23.175 19.838c-3.129 2.679-3.495 7.388-.816 10.518 2.689 3.14 7.403 3.485 10.518.816l23.175-19.838c16.472-14.1 34.923-26.659 54.842-37.328 24.121-12.919 46.627-27.948 61.637-39.662l.166.166c10.446 10.446 24.335 16.2 39.109 16.2 14.773 0 28.662-5.753 39.109-16.2l46.28-46.28c2.912-2.913 2.912-7.637-.001-10.55zm-162.259-12.343c3.506-3.505 9.21-3.505 12.716 0 3.506 3.506 3.506 9.21 0 12.716l-6.166 6.166-12.716-12.715zm-51.266 361.611c-19.777 0-35.868-16.09-35.868-35.868 0-13.511 20.271-38.273 35.87-53.851 15.598 15.565 35.865 40.318 35.865 53.851 0 19.778-16.09 35.868-35.867 35.868zm-44.686-324.854c-10.669 19.919-23.228 38.371-37.329 54.842l-35.509 41.481c-14.618-17.131-22.592-38.669-22.592-61.435 0-52.283 42.536-94.819 94.82-94.819h.683c11.693 0 23.061 2.107 33.676 6.132-10.602 14.488-22.916 33.572-33.749 53.799z"/></g></svg>